<svg xmlns="http://www.w3.org/2000/svg" width="150" height="150" viewBox="0 0 150 150" fill="currentColor" class="h-6 w-6 text-text-primary"><title>Brand Logo</title><g id="surface1"><path d="M 0 56.25 L 0 116.25 L 20.832031 116.25 C 23.023438 116.25 25.1875 116.636719 27.210938 117.390625 C 29.234375 118.144531 31.070312 119.25 32.617188 120.644531 C 34.164062 122.035156 35.394531 123.691406 36.230469 125.511719 C 37.070312 127.328125 37.5 129.28125 37.5 131.25 L 37.5 150 L 87.5 150 L 150 93.75 L 150 33.75 L 129.167969 33.75 C 126.976562 33.75 124.8125 33.363281 122.789062 32.609375 C 120.765625 31.855469 118.929688 30.75 117.382812 29.355469 C 115.835938 27.964844 114.605469 26.308594 113.769531 24.492188 C 112.929688 22.671875 112.5 20.71875 112.5 18.75 L 112.5 0 L 62.5 0 Z M 70.832031 112.5 L 41.667969 112.5 L 41.667969 71.25 L 79.167969 37.5 L 108.332031 37.5 L 108.332031 78.75 Z M 70.832031 112.5" style="stroke:none;fill-rule:evenodd;fill:currentColor;fill-opacity:1"></path></g></svg>
